PathFileType	4	(X/Y/Z)	T:\Spectrum_Optical_Capture\Spectrum_Demo_10_05_01_TRUECOMBAT\07_Smooth_Trc\TC_Stairs_1.trc
DataRate	CameraRate	NumFrames	NumMarkers	Units	OrigDataRate	OrigDataStartFrame	OrigNumFrames
60.0	60.0	       4	46	mm	60.0	1	       716
Frame#	Time	HeadTop			ForeHead			LFrontHead			RFrontHead			TopSpine			Sternum			Scapula			LFShoulder			LShoulder			LBicep			LOuterElbow			LHand			LWristPinky			LWristThumb			RFShoulder			RShoulder			RBicep			ROuterElbow			RHand			RWristPinky			RWristThumb			MiddleBack			LowerBack			Root			Pelvis			LBackWaist			RBackWaist			LFrontWaist			RFrontWaist			Bellymarker			LThigh			LOuterKnee			LAnkle			LHeel			LOuterMeta			LToe			RThigh			ROuterKnee			RAnkle			RHeel			ROuterMeta			RToe			Floor1			Floor2			Floor3			Floor4			
		X1	Y1	Z1	X2	Y2	Z2	X3	Y3	Z3	X4	Y4	Z4	X5	Y5	Z5	X6	Y6	Z6	X7	Y7	Z7	X8	Y8	Z8	X9	Y9	Z9	X10	Y10	Z10	X11	Y11	Z11	X12	Y12	Z12	X13	Y13	Z13	X14	Y14	Z14	X15	Y15	Z15	X16	Y16	Z16	X17	Y17	Z17	X18	Y18	Z18	X19	Y19	Z19	X20	Y20	Z20	X21	Y21	Z21	X22	Y22	Z22	X23	Y23	Z23	X24	Y24	Z24	X25	Y25	Z25	X26	Y26	Z26	X27	Y27	Z27	X28	Y28	Z28	X29	Y29	Z29	X30	Y30	Z30	X31	Y31	Z31	X32	Y32	Z32	X33	Y33	Z33	X34	Y34	Z34	X35	Y35	Z35	X36	Y36	Z36	X37	Y37	Z37	X38	Y38	Z38	X39	Y39	Z39	X40	Y40	Z40	X41	Y41	Z41	X42	Y42	Z42	X43	Y43	Z43	X44	Y44	Z44	X45	Y45	Z45	X46	Y46	Z46	

1	0.000	390.10281	1688.47156	-2137.38281	379.35873	1583.86755	-2006.99292	473.76846	1564.73328	-2077.69263	289.75159	1579.95520	-2076.91211	363.63898	1374.23633	-2267.00952	361.43854	1173.62537	-2002.98218	228.34872	1248.99841	-2279.78442	447.07690	1300.57532	-2049.86963	529.72552	1401.69568	-2185.59302	707.95319	1355.77234	-2205.87915	779.55640	1251.42444	-2226.25098	1005.79785	1335.89563	-2195.88452	1079.86914	1330.90088	-2211.62671	1138.52051	1367.76819	-2137.37061	289.95593	1304.51685	-2047.17676	214.67461	1407.17896	-2168.99634	62.38702	1354.57581	-2213.90063	-74.25285	1309.21582	-2190.99951	-273.63519	1397.21631	-2085.78052	-355.79984	1382.19690	-2104.12964	-394.20404	1418.12427	-2018.64783	360.29443	1285.08850	-2285.21436	352.67126	1161.78894	-2279.48364	344.87042	1048.20398	-2267.18994	498.68146	1076.89917	-2231.17310	479.79544	958.95929	-2250.13428	199.34303	963.79541	-2225.49219	514.12402	957.47314	-2107.09106	188.36517	967.78485	-2079.02539	358.26477	985.64929	-1983.19507	531.64105	697.03070	-2204.85376	515.09290	533.76642	-2204.86597	503.77881	128.54482	-2228.24463	429.31815	58.49914	-2274.90869	532.45770	43.51902	-2155.68945	492.90387	49.57187	-2031.89502	164.75021	693.79584	-2084.66089	188.29996	536.72498	-2161.13745	209.86934	143.87291	-2235.30933	292.57809	59.96303	-2298.43018	181.25642	36.53532	-2184.01538	219.75681	49.90157	-2066.37866	4201.29590	32.74355	-4241.45068	-3735.33447	-12.53512	-4194.37891	-3781.64673	-14.99911	4946.33545	4162.90283	21.57952	4908.62939	
2	0.017	389.55673	1688.51465	-2137.03906	378.73120	1583.80396	-2006.72046	473.68002	1564.58398	-2077.31128	289.43121	1579.85608	-2076.73193	363.66190	1374.33008	-2266.90283	361.24237	1173.48645	-2002.97644	228.04288	1249.39148	-2280.11646	446.91318	1300.51477	-2049.61182	529.71899	1401.79871	-2185.48779	707.76160	1356.02869	-2205.78052	779.44696	1251.54895	-2225.75488	1005.70752	1336.17407	-2195.98975	1079.59082	1330.99390	-2211.68530	1138.31897	1368.10742	-2137.12476	289.94214	1304.49963	-2047.16260	214.60089	1407.19385	-2169.01929	62.22533	1354.63098	-2213.93555	-74.51791	1309.26514	-2191.12207	-273.84000	1397.19214	-2085.77344	-355.84271	1382.17542	-2104.06982	-394.20068	1418.12024	-2018.61877	360.24130	1285.15649	-2285.22437	352.49887	1162.00098	-2279.54736	344.76291	1048.37720	-2267.36621	498.63675	1076.84998	-2231.26001	479.82602	959.03955	-2250.22144	199.44160	963.74445	-2225.69165	514.08240	957.40942	-2107.07104	188.15222	967.73834	-2079.10156	358.18878	985.53894	-1983.45459	531.61975	696.91168	-2204.88330	515.11859	533.67151	-2204.88086	503.71533	128.67171	-2228.33398	429.38278	58.43568	-2274.77490	532.32983	43.46178	-2155.71460	492.69879	49.63494	-2031.96667	164.64543	693.81726	-2084.51904	188.23746	536.72333	-2161.05298	209.88257	143.86719	-2235.44946	292.57037	60.04498	-2298.51343	181.23848	36.52410	-2184.03906	219.79462	49.87963	-2066.39478	4201.14404	32.87344	-4241.36328	-3735.32422	-12.52232	-4194.40381	-3781.54932	-15.07586	4946.13379	4162.75439	21.14492	4908.73975	
3	0.033	389.08353	1688.55798	-2136.65698	378.16928	1583.73499	-2006.44678	473.59131	1564.45203	-2076.93872	289.08096	1579.77014	-2076.53052	363.67227	1374.41394	-2266.78833	361.04596	1173.35229	-2002.98792	227.75452	1249.75110	-2280.43872	446.77051	1300.46497	-2049.40039	529.68475	1401.88342	-2185.37598	707.58643	1356.28552	-2205.67456	779.41882	1251.75854	-2225.36621	1005.52820	1336.43262	-2196.19141	1079.36340	1331.07898	-2211.60767	1138.16223	1368.44348	-2136.86572	289.94006	1304.48328	-2047.15930	214.52098	1407.20203	-2169.02319	62.08865	1354.67188	-2213.96606	-74.78022	1309.31653	-2191.24585	-274.02798	1397.15320	-2085.77661	-355.88745	1382.15210	-2103.99829	-394.22171	1418.13452	-2018.61938	360.18365	1285.23572	-2285.23560	352.35843	1162.18494	-2279.59863	344.65137	1048.50720	-2267.49072	498.59937	1076.83203	-2231.38306	479.82697	959.09106	-2250.29321	199.51462	963.69415	-2225.91455	514.00537	957.35632	-2107.08667	187.98367	967.68671	-2079.20361	358.11386	985.45551	-1983.69714	531.59277	696.83246	-2204.91968	515.12036	533.59167	-2204.91553	503.64590	128.73975	-2228.40918	429.42084	58.39828	-2274.67651	532.20605	43.41098	-2155.75366	492.53424	49.68819	-2032.01794	164.55074	693.84839	-2084.36841	188.18954	536.72754	-2160.98291	209.91237	143.84982	-2235.53394	292.55991	60.11874	-2298.57324	181.23314	36.50663	-2184.05493	219.82478	49.85874	-2066.40625	4201.00439	32.97687	-4241.29199	-3735.31592	-12.50970	-4194.42334	-3781.47021	-15.15921	4945.98682	4162.65332	20.79223	4908.80420	
4	0.050	388.71832	1688.60193	-2136.22974	377.70728	1583.65540	-2006.17139	473.49515	1564.35254	-2076.56519	288.69931	1579.70654	-2076.30615	363.65628	1374.48059	-2266.67700	360.86227	1173.22900	-2003.02173	227.51779	1250.04053	-2280.72266	446.66962	1300.42761	-2049.25000	529.60870	1401.94312	-2185.25513	707.45886	1356.55042	-2205.55469	779.46246	1252.06653	-2225.09644	1005.24097	1336.66528	-2196.51489	1079.20923	1331.17603	-2211.37036	1138.05750	1368.79810	-2136.58423	289.94629	1304.47144	-2047.16858	214.42607	1407.20129	-2169.00342	61.98234	1354.69727	-2213.99878	-75.01614	1309.37122	-2191.38232	-274.18665	1397.09521	-2085.80029	-355.93689	1382.13672	-2103.93237	-394.28571	1418.17834	-2018.67566	360.12744	1285.32947	-2285.24756	352.26379	1162.31958	-2279.62598	344.52405	1048.57288	-2267.53320	498.55652	1076.86206	-2231.51514	479.79343	959.10480	-2250.33813	199.54553	963.64209	-2226.15845	513.88928	957.32355	-2107.15210	187.87413	967.63293	-2079.34155	358.03345	985.41052	-1983.90930	531.55597	696.80292	-2204.96021	515.09253	533.53967	-2204.98462	503.55206	128.70766	-2228.47192	429.42685	58.39520	-2274.62842	532.07324	43.36748	-2155.80859	492.42612	49.72949	-2032.04028	164.47154	693.88922	-2084.22388	188.15709	536.73615	-2160.93579	209.94870	143.82753	-2235.53833	292.54056	60.18064	-2298.59082	181.23880	36.47990	-2184.05908	219.84206	49.83898	-2066.41382	4200.88428	33.03495	-4241.24268	-3735.31104	-12.49905	-4194.43457	-3781.42749	-15.24956	4945.93555	4162.60742	20.61004	4908.78418	
